<?xml version="1.0" standalone="no"?>
<!DOCTYPE svg PUBLIC "-//W3C//DTD SVG 20010904//EN"
 "http://www.w3.org/TR/2001/REC-SVG-20010904/DTD/svg10.dtd">
<svg version="1.0" xmlns="http://www.w3.org/2000/svg"
 width="302.000000pt" height="395.000000pt" viewBox="0 0 302.000000 395.000000"
 preserveAspectRatio="xMidYMid meet">
<metadata>
Created by potrace 1.15, written by Peter Selinger 2001-2017
</metadata>
<g transform="translate(0.000000,395.000000) scale(0.100000,-0.100000)"
fill="#000000" stroke="none">
<path d="M327 3703 c-4 -3 -7 -564 -7 -1245 l0 -1238 469 0 468 0 7 84 c3 47
13 118 22 158 18 86 29 235 20 271 -13 52 -52 82 -187 142 -143 65 -215 119
-289 220 -60 83 -148 256 -169 336 -22 81 -38 249 -25 249 5 -1 23 -19 39 -40
42 -55 111 -108 159 -122 23 -7 84 -11 136 -10 90 3 99 1 166 -32 48 -23 82
-47 105 -76 19 -24 68 -79 109 -124 88 -95 113 -104 147 -54 37 55 104 115
173 153 107 61 131 67 291 70 131 3 152 6 214 31 38 15 98 48 133 72 35 24 66
41 69 38 18 -18 -84 -278 -146 -373 -107 -164 -271 -287 -489 -370 -35 -13
-81 -32 -103 -43 l-39 -20 0 -84 c0 -106 21 -170 112 -343 l71 -133 456 2 456
3 3 1243 2 1242 -225 0 -224 0 -398 -477 c-219 -262 -402 -478 -408 -479 -5
-2 -80 99 -165 223 -85 125 -233 341 -328 480 l-173 253 -223 0 c-122 0 -226
-3 -229 -7z"/>
<path d="M2084 1113 c-40 -8 -66 -47 -67 -102 -2 -47 1 -53 46 -98 55 -56 63
-88 20 -80 -70 14 -68 15 -71 -30 -4 -53 18 -67 95 -61 76 7 103 34 103 105 0
50 -3 56 -50 104 -28 29 -49 57 -47 63 2 6 21 11 43 11 37 0 39 2 42 35 5 52
-31 69 -114 53z"/>
<path d="M365 1088 c-6 -27 -55 -319 -55 -331 0 -4 21 -7 48 -5 43 3 47 5 50
31 3 24 7 28 30 25 21 -2 28 -9 30 -30 3 -22 8 -27 43 -30 22 -2 44 1 49 7 4
5 4 32 -1 60 -4 28 -15 93 -24 145 -28 168 -16 150 -96 150 -63 0 -69 -2 -74
-22z m87 -134 c2 -32 -1 -48 -10 -51 -21 -8 -24 2 -17 51 9 59 22 59 27 0z"/>
<path d="M585 1088 c-8 -30 1 -278 10 -301 11 -27 58 -47 109 -47 36 0 52 6
78 29 l33 29 0 154 0 153 -45 0 -45 0 -5 -135 c-4 -118 -7 -135 -22 -138 -16
-3 -18 9 -18 137 l0 141 -45 0 c-38 0 -45 -3 -50 -22z"/>
<path d="M850 931 c0 -180 1 -187 33 -182 4 1 61 2 127 2 l119 0 3 27 c4 37
49 39 58 2 5 -22 12 -25 54 -28 l49 -3 -7 38 c-3 21 -11 70 -17 108 -5 39 -16
102 -22 140 l-12 70 -68 3 c-81 4 -75 15 -108 -193 -18 -109 -25 -141 -29
-115 -5 32 -8 35 -45 40 l-40 5 -2 130 -1 130 -46 3 -46 3 0 -180z m329 -3 c1
-22 -4 -28 -19 -28 -19 0 -20 4 -15 38 10 60 17 71 25 42 5 -14 8 -37 9 -52z"/>
<path d="M1420 931 c0 -195 -1 -191 60 -181 l35 5 3 80 3 80 22 -39 c12 -22
27 -39 32 -40 6 -1 17 14 27 32 27 54 30 51 27 -33 l-2 -80 46 -3 47 -3 0 180
0 181 -45 0 -45 0 -26 -57 c-24 -55 -26 -57 -40 -38 -8 11 -22 36 -32 57 -16
36 -19 37 -64 38 l-48 0 0 -179z"/>
<path d="M1760 956 c0 -85 3 -162 6 -171 16 -41 118 -59 173 -30 42 21 51 61
51 216 l0 139 -44 0 c-55 0 -58 -6 -51 -125 6 -114 -1 -155 -26 -155 -18 0
-19 9 -19 140 l0 140 -45 0 -45 0 0 -154z"/>
<path d="M2237 1103 c-11 -10 -8 -341 3 -348 14 -9 167 -13 180 -5 7 4 10 22
8 41 -3 32 -5 34 -48 39 -40 4 -45 8 -48 32 -3 25 0 27 40 30 l43 3 0 40 c0
40 0 40 -42 43 -38 3 -43 6 -43 28 0 22 4 24 44 24 43 0 44 1 48 35 2 20 2 38
-1 40 -7 8 -177 6 -184 -2z"/>
<path d="M2460 952 c0 -156 0 -159 25 -182 52 -49 173 -33 195 26 6 14 10 90
10 170 l0 144 -45 0 -45 0 0 -127 c0 -132 -7 -160 -34 -150 -14 5 -16 27 -16
142 l0 135 -45 0 -45 0 0 -158z"/>
<path d="M364 425 c0 -82 2 -115 3 -72 2 43 2 110 0 150 -1 40 -3 5 -3 -78z"/>
<path d="M465 558 c-3 -7 -4 -71 -2 -143 l2 -130 60 -1 c58 -1 58 -1 8 3 l-53
4 0 64 0 64 38 4 37 4 -37 1 -38 2 0 60 0 60 50 0 c28 0 50 5 50 10 0 15 -110
13 -115 -2z"/>
<path d="M667 552 c-29 -32 -21 -76 19 -114 20 -18 45 -41 55 -50 39 -37 14
-102 -36 -96 -24 2 -32 10 -42 38 -10 31 -12 32 -12 9 -1 -38 21 -62 59 -62
39 0 60 24 60 68 0 26 -11 42 -55 82 -59 55 -70 87 -37 116 35 32 65 17 82
-40 l8 -28 1 28 c2 55 -67 88 -102 49z"/>
<path d="M1161 544 c-18 -23 -21 -41 -21 -126 0 -93 2 -101 26 -124 19 -20 31
-24 52 -19 46 11 52 29 52 151 0 105 -1 114 -22 128 -33 23 -64 19 -87 -10z
m81 -1 c15 -13 18 -32 18 -115 0 -113 -9 -138 -48 -138 -47 0 -52 14 -52 137
0 96 2 113 18 122 25 15 43 13 64 -6z"/>
<path d="M1537 563 c-10 -18 -8 -283 2 -283 7 0 11 43 12 123 l0 122 45 -115
c25 -63 49 -119 55 -125 5 -5 8 47 7 140 l-2 150 -6 -130 -5 -130 -49 128
c-27 70 -50 127 -52 127 -1 0 -5 -3 -7 -7z"/>
<path d="M1867 563 c-11 -11 -8 -283 3 -283 6 0 10 30 10 70 0 67 1 70 23 70
21 0 27 -10 48 -70 13 -38 27 -70 31 -70 4 0 -3 30 -16 66 l-24 65 24 24 c50
50 13 135 -59 135 -18 0 -37 -3 -40 -7z m101 -45 c21 -44 -2 -82 -51 -86 l-37
-3 0 61 0 61 37 -3 c30 -2 41 -9 51 -30z"/>
<path d="M2096 559 c-3 -8 -17 -68 -31 -134 -15 -66 -28 -126 -30 -133 -3 -6
0 -12 5 -12 5 0 10 12 12 28 3 25 7 27 50 30 45 3 46 2 54 -30 4 -18 9 -28 11
-21 4 11 -53 272 -62 281 -2 3 -7 -1 -9 -9z m43 -186 c1 -20 -4 -23 -39 -23
-39 0 -40 1 -34 28 39 173 35 167 55 87 9 -38 18 -80 18 -92z"/>
<path d="M2242 424 l2 -149 6 125 5 125 24 -52 c13 -29 27 -53 31 -53 9 0 44
89 37 96 -2 3 -12 -14 -22 -38 l-17 -42 -27 62 c-15 34 -31 65 -34 69 -4 3 -6
-61 -5 -143z"/>
<path d="M2474 425 c0 -82 2 -115 3 -72 2 43 2 110 0 150 -1 40 -3 5 -3 -78z"/>
<path d="M2594 562 c-21 -13 -34 -52 -28 -77 3 -14 26 -42 51 -62 56 -46 69
-77 48 -109 -26 -39 -85 -27 -85 18 0 10 -5 18 -11 18 -16 0 0 -42 23 -62 27
-24 44 -23 73 7 41 40 33 71 -30 130 -45 41 -55 56 -55 82 0 60 75 70 87 12 6
-29 23 -41 23 -15 0 41 -64 80 -96 58z"/>
<path d="M1040 437 c0 -129 -5 -147 -45 -147 -30 0 -45 19 -45 57 0 18 -5 33
-11 33 -19 0 -2 -73 22 -92 29 -24 45 -23 74 7 24 23 25 30 25 145 0 73 -4
120 -10 120 -6 0 -10 -48 -10 -123z"/>
<path d="M1390 556 c0 -2 -14 -64 -30 -136 -17 -73 -28 -135 -25 -138 3 -3 8
9 11 26 6 31 9 32 55 32 45 0 49 -2 49 -24 0 -14 5 -28 10 -31 13 -8 14 -16
-20 135 -16 73 -30 134 -30 136 0 2 -4 4 -10 4 -5 0 -10 -2 -10 -4z m29 -98
c7 -35 15 -73 18 -85 5 -21 2 -23 -37 -23 -41 0 -42 1 -37 28 4 15 12 55 18
89 7 34 15 60 19 58 4 -3 13 -33 19 -67z"/>
<path d="M2358 553 c-8 -18 4 -273 13 -273 5 0 9 61 9 140 0 81 -4 140 -9 140
-6 0 -11 -3 -13 -7z"/>
</g>
</svg>
